<svg width="123" height="41" viewBox="0 0 123 41" fill="none" xmlns="http://www.w3.org/2000/svg">
<g clip-path="url(#clip0_265_585)">
<path d="M15.9018 26.1714C14.1589 27.9248 11.2071 27.9178 10.3827 25.581C10.2213 25.1235 10.0922 24.6531 9.99734 24.1731C9.60981 22.2132 9.8087 20.1817 10.5689 18.3356C11.329 16.4895 12.6163 14.9115 14.2679 13.8014C15.9195 12.6912 17.8613 12.0986 19.8477 12.0986C21.8341 12.0986 23.7758 12.6912 25.4274 13.8014C27.0791 14.9115 28.3663 16.4895 29.1265 18.3356C29.8867 20.1817 30.0855 22.2132 29.698 24.1731C29.6031 24.6531 29.4741 25.1235 29.3126 25.581C28.4883 27.9178 25.5365 27.9248 23.7935 26.1714L21.1031 23.4649C20.846 23.2063 20.8726 22.7799 20.9435 22.4212C20.9866 22.2032 20.9645 21.9772 20.8799 21.7719C20.7953 21.5665 20.6522 21.3909 20.4684 21.2674C20.2847 21.144 20.0687 21.078 19.8477 21.078C19.6267 21.078 19.4107 21.144 19.227 21.2674C19.0432 21.3909 18.9 21.5665 18.8154 21.7719C18.7309 21.9772 18.7087 22.2032 18.7519 22.4212C18.8228 22.7799 18.8493 23.2063 18.5922 23.4649L15.9018 26.1714Z" fill="url(#paint0_linear_265_585)"/>
<path d="M38.062 23.7456H40.7616V25.346H36.0011V16.835H38.062V23.7456Z" fill="#3A3B7B"/>
<path d="M44.4443 25.4436C43.7854 25.4436 43.1908 25.3021 42.6605 25.0192C42.1383 24.7363 41.7245 24.3322 41.4192 23.8068C41.1219 23.2814 40.9733 22.6672 40.9733 21.9639C40.9733 21.2689 41.1259 20.6586 41.4312 20.1332C41.7366 19.5998 42.1544 19.1916 42.6846 18.9087C43.2149 18.6258 43.8095 18.4844 44.4684 18.4844C45.1272 18.4844 45.7218 18.6258 46.252 18.9087C46.7823 19.1916 47.2001 19.5998 47.5054 20.1332C47.8108 20.6586 47.9634 21.2689 47.9634 21.9639C47.9634 22.6591 47.8067 23.2733 47.4934 23.8068C47.1881 24.3322 46.7663 24.7363 46.2279 25.0192C45.6977 25.3021 45.1031 25.4436 44.4443 25.4436ZM44.4443 23.6492C44.8379 23.6492 45.1714 23.5037 45.4446 23.2127C45.7258 22.9218 45.8664 22.5055 45.8664 21.9639C45.8664 21.4224 45.7298 21.0062 45.4566 20.7152C45.1915 20.4242 44.862 20.2787 44.4684 20.2787C44.0666 20.2787 43.7332 20.4242 43.468 20.7152C43.2029 20.9981 43.0703 21.4143 43.0703 21.9639C43.0703 22.5055 43.1989 22.9218 43.456 23.2127C43.7212 23.5037 44.0506 23.6492 44.4443 23.6492Z" fill="#3A3B7B"/>
<path d="M51.2502 18.4844C51.7243 18.4844 52.1381 18.5814 52.4916 18.7754C52.8531 18.9693 53.1304 19.2239 53.3232 19.5391V18.5814H55.384V25.3344C55.384 25.9568 55.2595 26.5186 55.0104 27.0196C54.7694 27.5289 54.3958 27.933 53.8896 28.232C53.3915 28.5311 52.7688 28.6807 52.0216 28.6807C51.0253 28.6807 50.2178 28.4422 49.5991 27.9654C48.9805 27.4965 48.6269 26.858 48.5385 26.0497H50.5753C50.6396 26.3084 50.7923 26.5105 51.0333 26.656C51.2743 26.8095 51.5716 26.8863 51.9252 26.8863C52.351 26.8863 52.6884 26.761 52.9375 26.5105C53.1946 26.268 53.3232 25.876 53.3232 25.3344V24.3766C53.1223 24.6918 52.8451 24.9505 52.4916 25.1526C52.1381 25.3466 51.7243 25.4436 51.2502 25.4436C50.6958 25.4436 50.1937 25.3021 49.7437 25.0192C49.2938 24.7282 48.9362 24.32 48.6711 23.7947C48.414 23.2612 48.2854 22.647 48.2854 21.9518C48.2854 21.2567 48.414 20.6465 48.6711 20.1211C48.9362 19.5957 49.2938 19.1916 49.7437 18.9087C50.1937 18.6258 50.6958 18.4844 51.2502 18.4844ZM53.3232 21.9639C53.3232 21.4467 53.1786 21.0385 52.8893 20.7394C52.6081 20.4404 52.2626 20.2909 51.8528 20.2909C51.443 20.2909 51.0936 20.4404 50.8043 20.7394C50.5231 21.0304 50.3825 21.4346 50.3825 21.9518C50.3825 22.4691 50.5231 22.8814 50.8043 23.1885C51.0936 23.4875 51.443 23.6371 51.8528 23.6371C52.2626 23.6371 52.6081 23.4875 52.8893 23.1885C53.1786 22.8894 53.3232 22.4813 53.3232 21.9639Z" fill="#3A3B7B"/>
<path d="M59.5747 25.4436C58.9158 25.4436 58.3213 25.3021 57.791 25.0192C57.2687 24.7363 56.8549 24.3322 56.5496 23.8068C56.2524 23.2814 56.1037 22.6672 56.1037 21.9639C56.1037 21.2689 56.2563 20.6586 56.5617 20.1332C56.867 19.5998 57.2848 19.1916 57.815 18.9087C58.3454 18.6258 58.9399 18.4844 59.5988 18.4844C60.2576 18.4844 60.8522 18.6258 61.3824 18.9087C61.9128 19.1916 62.3305 19.5998 62.6359 20.1332C62.9412 20.6586 63.0938 21.2689 63.0938 21.9639C63.0938 22.6591 62.9372 23.2733 62.6238 23.8068C62.3185 24.3322 61.8967 24.7363 61.3583 25.0192C60.8281 25.3021 60.2335 25.4436 59.5747 25.4436ZM59.5747 23.6492C59.9683 23.6492 60.3018 23.5037 60.575 23.2127C60.8562 22.9218 60.9968 22.5055 60.9968 21.9639C60.9968 21.4224 60.8602 21.0062 60.587 20.7152C60.3219 20.4242 59.9925 20.2787 59.5988 20.2787C59.197 20.2787 58.8636 20.4242 58.5984 20.7152C58.3333 20.9981 58.2007 21.4143 58.2007 21.9639C58.2007 22.5055 58.3293 22.9218 58.5864 23.2127C58.8516 23.5037 59.181 23.6492 59.5747 23.6492Z" fill="#3A3B7B"/>
<path d="M64.8621 17.8777C64.5005 17.8777 64.2033 17.7726 63.9703 17.5625C63.7453 17.3443 63.6328 17.0775 63.6328 16.7623C63.6328 16.439 63.7453 16.1723 63.9703 15.9621C64.2033 15.7439 64.5005 15.6348 64.8621 15.6348C65.2156 15.6348 65.5049 15.7439 65.7298 15.9621C65.9628 16.1723 66.0793 16.439 66.0793 16.7623C66.0793 17.0775 65.9628 17.3443 65.7298 17.5625C65.5049 17.7726 65.2156 17.8777 64.8621 17.8777ZM65.8865 18.5809V25.3461H63.8256V18.5809H65.8865Z" fill="#3A3B7B"/>
<path d="M69.0792 19.5391C69.28 19.2239 69.5572 18.9693 69.9109 18.7754C70.2646 18.5814 70.6784 18.4844 71.1523 18.4844C71.7068 18.4844 72.2088 18.6258 72.6588 18.9087C73.1088 19.1916 73.4625 19.5957 73.7193 20.1211C73.9843 20.6465 74.1173 21.2567 74.1173 21.9518C74.1173 22.647 73.9843 23.2612 73.7193 23.7947C73.4625 24.32 73.1088 24.7282 72.6588 25.0192C72.2088 25.3021 71.7068 25.4436 71.1523 25.4436C70.686 25.4436 70.2728 25.3466 69.9109 25.1526C69.5572 24.9586 69.28 24.708 69.0792 24.4009V28.5715H67.0184V18.5814H69.0792V19.5391ZM72.0202 21.9518C72.0202 21.4346 71.8755 21.0304 71.586 20.7394C71.3047 20.4404 70.9556 20.2909 70.5377 20.2909C70.128 20.2909 69.7784 20.4404 69.4889 20.7394C69.2082 21.0385 69.0675 21.4467 69.0675 21.9639C69.0675 22.4813 69.2082 22.8894 69.4889 23.1885C69.7784 23.4875 70.128 23.6371 70.5377 23.6371C70.9475 23.6371 71.2971 23.4875 71.586 23.1885C71.8755 22.8814 72.0202 22.4691 72.0202 21.9518Z" fill="#3A3B7B"/>
<path d="M77.5726 25.4436C76.986 25.4436 76.4636 25.3425 76.0055 25.1405C75.5479 24.9384 75.186 24.6636 74.921 24.316C74.656 23.9604 74.5072 23.5643 74.4751 23.1278H76.5121C76.536 23.3622 76.6446 23.5522 76.8372 23.6977C77.0304 23.8432 77.2673 23.9159 77.5487 23.9159C77.8055 23.9159 78.0022 23.8674 78.1388 23.7704C78.2835 23.6654 78.3559 23.532 78.3559 23.3703C78.3559 23.1763 78.2555 23.0349 78.0547 22.946C77.8539 22.849 77.5282 22.744 77.0782 22.6308C76.5961 22.5176 76.1946 22.4004 75.873 22.2792C75.552 22.1499 75.2747 21.9518 75.0418 21.6851C74.8084 21.4103 74.6922 21.0425 74.6922 20.5818C74.6922 20.1939 74.7967 19.8423 75.0057 19.527C75.2222 19.2037 75.5356 18.9491 75.9454 18.7632C76.3633 18.5773 76.8576 18.4844 77.4279 18.4844C78.2712 18.4844 78.9343 18.6945 79.4164 19.1148C79.9067 19.5351 80.188 20.0928 80.2604 20.7879H78.3559C78.3238 20.5535 78.2193 20.3677 78.0424 20.2302C77.8738 20.0928 77.6491 20.0241 77.3677 20.0241C77.1267 20.0241 76.9417 20.0726 76.8133 20.1696C76.6849 20.2585 76.6206 20.3838 76.6206 20.5454C76.6206 20.7394 76.721 20.8849 76.9218 20.9819C77.1308 21.0789 77.4518 21.1759 77.886 21.2729C78.3839 21.4022 78.7895 21.5316 79.103 21.6609C79.4164 21.7821 79.6895 21.9841 79.9224 22.2671C80.1635 22.5419 80.2884 22.9137 80.2965 23.3825C80.2965 23.7785 80.1839 24.1342 79.9586 24.4494C79.7421 24.7565 79.4246 24.999 79.0067 25.1768C78.5969 25.3547 78.1189 25.4436 77.5726 25.4436Z" fill="#3A3B7B"/>
<path d="M87.8363 18.5811V25.3462H85.7754V24.4248C85.5664 24.7239 85.281 24.9664 84.9197 25.1522C84.566 25.3301 84.1726 25.419 83.7384 25.419C83.2242 25.419 82.7701 25.3058 82.3767 25.0795C81.9827 24.8451 81.6775 24.5097 81.461 24.0732C81.2438 23.6368 81.1353 23.1235 81.1353 22.5334V18.5811H83.1839V22.2546C83.1839 22.7072 83.3006 23.0588 83.5335 23.3094C83.7664 23.56 84.0798 23.6853 84.4738 23.6853C84.8754 23.6853 85.1929 23.56 85.4258 23.3094C85.6586 23.0588 85.7754 22.7072 85.7754 22.2546V18.5811H87.8363Z" fill="#3A3B7B"/>
<path d="M97.5361 18.5078C98.3713 18.5078 99.0344 18.7624 99.5247 19.2716C100.023 19.7808 100.272 20.488 100.272 21.3933V25.3457H98.2231V21.6722C98.2231 21.2357 98.1064 20.9003 97.8735 20.6659C97.6482 20.4234 97.3353 20.3021 96.9332 20.3021C96.5316 20.3021 96.2141 20.4234 95.9812 20.6659C95.7565 20.9003 95.6439 21.2357 95.6439 21.6722V25.3457H93.5947V21.6722C93.5947 21.2357 93.4785 20.9003 93.2456 20.6659C93.0203 20.4234 92.7069 20.3021 92.3054 20.3021C91.9038 20.3021 91.5863 20.4234 91.3534 20.6659C91.1281 20.9003 91.016 21.2357 91.016 21.6722V25.3457H88.9551V18.5806H91.016V19.4292C91.225 19.1463 91.4982 18.924 91.8355 18.7624C92.1729 18.5927 92.5546 18.5078 92.9801 18.5078C93.4867 18.5078 93.9367 18.6169 94.3301 18.8351C94.7316 19.0534 95.0451 19.3646 95.2703 19.7687C95.5032 19.3969 95.8207 19.0938 96.2223 18.8594C96.6239 18.625 97.0622 18.5078 97.5361 18.5078Z" fill="#3A3B7B"/>
</g>
<defs>
<linearGradient id="paint0_linear_265_585" x1="28.9768" y1="17.1503" x2="11.1499" y2="17.1503" gradientUnits="userSpaceOnUse">
<stop stop-color="#64C2DB"/>
<stop offset="0.510417" stop-color="#7476ED"/>
<stop offset="1" stop-color="#E56F8C"/>
</linearGradient>
<clipPath id="clip0_265_585">
<rect width="90.4674" height="17.0273" fill="white" transform="translate(9.80435 12.0986)"/>
</clipPath>
</defs>
</svg>
