<svg width="13" height="13" viewBox="0 0 13 13" fill="none" xmlns="http://www.w3.org/2000/svg">
<g clip-path="url(#clip0_265_562)">
<path d="M9.481 0H3.51898C1.57858 0 0 1.57858 0 3.51898V9.4811C0 11.4214 1.57858 13 3.51898 13H9.4811C11.4214 13 13 11.4214 13 9.4811V3.51898C13 1.57858 11.4214 0 9.481 0V0ZM12.2379 9.4811C12.2379 11.0012 11.0012 12.2379 9.481 12.2379H3.51898C1.99881 12.2379 0.762114 11.0012 0.762114 9.4811V3.51898C0.762114 1.99881 1.99881 0.762114 3.51898 0.762114H9.4811C11.0012 0.762114 12.2379 1.99881 12.2379 3.51898V9.4811Z" fill="#1A202C"/>
<path d="M6.50002 2.94531C4.53998 2.94531 2.94543 4.53986 2.94543 6.49989C2.94543 8.45993 4.53998 10.0545 6.50002 10.0545C8.46005 10.0545 10.0546 8.45993 10.0546 6.49989C10.0546 4.53986 8.46005 2.94531 6.50002 2.94531ZM6.50002 9.29236C4.96032 9.29236 3.70755 8.03969 3.70755 6.49989C3.70755 4.96019 4.96032 3.70743 6.50002 3.70743C8.03982 3.70743 9.29248 4.96019 9.29248 6.49989C9.29248 8.03969 8.03982 9.29236 6.50002 9.29236Z" fill="#1A202C"/>
<path d="M10.1396 1.68262C9.56035 1.68262 9.08923 2.15383 9.08923 2.73295C9.08923 3.31218 9.56035 3.78339 10.1396 3.78339C10.7188 3.78339 11.19 3.31218 11.19 2.73295C11.19 2.15373 10.7188 1.68262 10.1396 1.68262ZM10.1396 3.02118C9.98068 3.02118 9.85135 2.89184 9.85135 2.73295C9.85135 2.57397 9.98068 2.44473 10.1396 2.44473C10.2986 2.44473 10.4279 2.57397 10.4279 2.73295C10.4279 2.89184 10.2986 3.02118 10.1396 3.02118Z" fill="#1A202C"/>
</g>
<defs>
<clipPath id="clip0_265_562">
<rect width="13" height="13" fill="white"/>
</clipPath>
</defs>
</svg>
