<svg width="11" height="11" viewBox="0 0 11 11" fill="none" xmlns="http://www.w3.org/2000/svg">
<g clip-path="url(#clip0_265_576)">
<path d="M10.9972 11.0003V10.9998H11V6.96555C11 4.99197 10.5751 3.47168 8.26783 3.47168C7.15866 3.47168 6.41433 4.08035 6.11046 4.65739H6.07837V3.65593H3.89075V10.9998H6.16866V7.36339C6.16866 6.40593 6.35016 5.4801 7.53587 5.4801C8.70416 5.4801 8.72158 6.57276 8.72158 7.42481V11.0003H10.9972Z" fill="#1A202C"/>
<path d="M0.181519 3.65625H2.46219V11.0001H0.181519V3.65625Z" fill="#1A202C"/>
<path d="M1.32092 0C0.591708 0 0 0.591708 0 1.32092C0 2.05013 0.591708 2.65421 1.32092 2.65421C2.05013 2.65421 2.64183 2.05013 2.64183 1.32092C2.64138 0.591708 2.04967 0 1.32092 0V0Z" fill="#1A202C"/>
</g>
<defs>
<clipPath id="clip0_265_576">
<rect width="11" height="11" fill="white"/>
</clipPath>
</defs>
</svg>
