<svg width="30" height="23" viewBox="0 0 30 23" fill="none" xmlns="http://www.w3.org/2000/svg">
<path d="M9.27091 20.6609C6.72031 23.184 2.40056 23.174 1.19417 19.8113C0.95798 19.1529 0.769135 18.476 0.630239 17.7852C0.0631322 14.9649 0.354192 12.0416 1.46662 9.38493C2.57904 6.72833 4.46285 4.45765 6.87985 2.86009C9.29688 1.26253 12.1385 0.409836 15.0454 0.409836C17.9523 0.409836 20.7939 1.26253 23.2109 2.86009C25.6279 4.45765 27.5117 6.72833 28.6241 9.38502C29.7366 12.0416 30.0276 14.9649 29.4605 17.7852C29.3216 18.476 29.1328 19.1529 28.8965 19.8113C27.6901 23.174 23.3704 23.184 20.8198 20.6609L16.8826 16.7662C16.5064 16.3941 16.5453 15.7804 16.649 15.2643C16.7121 14.9506 16.6797 14.6254 16.5559 14.3298C16.4322 14.0343 16.2227 13.7817 15.9538 13.604C15.6849 13.4263 15.3688 13.3314 15.0454 13.3314C14.722 13.3314 14.4059 13.4263 14.137 13.604C13.8681 13.7817 13.6585 14.0343 13.5348 14.3298C13.411 14.6254 13.3786 14.9506 13.4418 15.2643C13.5455 15.7804 13.5843 16.3941 13.2081 16.7662L9.27091 20.6609Z" fill="url(#paint0_linear_211_26)"/>
<defs>
<linearGradient id="paint0_linear_211_26" x1="28.405" y1="7.67932" x2="2.31693" y2="7.67932" gradientUnits="userSpaceOnUse">
<stop stop-color="#64C2DB"/>
<stop offset="0.510417" stop-color="#7476ED"/>
<stop offset="1" stop-color="#E56F8C"/>
</linearGradient>
</defs>
</svg>
