<svg width="100" height="56" viewBox="0 0 100 56" fill="none" xmlns="http://www.w3.org/2000/svg">
<mask id="mask0_305_598" style="mask-type:alpha" maskUnits="userSpaceOnUse" x="2" y="2" width="96" height="52">
<path d="M2.09023 27.9719C2.09023 41.8199 23.5402 53.0469 50.0142 53.0469C76.4882 53.0469 97.9482 41.8199 97.9482 27.9709C97.9482 14.1219 76.4882 2.89487 50.0142 2.89487C23.5402 2.89487 2.09023 14.1239 2.09023 27.9719Z" fill="white"/>
</mask>
<g mask="url(#mask0_305_598)">
<path d="M2.09023 27.9719C2.09023 41.8199 23.5402 53.0469 50.0142 53.0469C76.4882 53.0469 97.9482 41.8199 97.9482 27.9709C97.9482 14.1219 76.4882 2.89487 50.0142 2.89487C23.5402 2.89487 2.09023 14.1239 2.09023 27.9719Z" fill="url(#paint0_radial_305_598)"/>
</g>
<mask id="mask1_305_598" style="mask-type:alpha" maskUnits="userSpaceOnUse" x="0" y="0" width="100" height="56">
<path d="M0.0832214 0.0413208H99.9432V55.9033H0.0832214V0.0413208Z" fill="white"/>
</mask>
<g mask="url(#mask1_305_598)">
<path d="M50.0132 51.1865C75.4512 51.1865 96.0732 40.7935 96.0732 27.9725C96.0732 15.1515 75.4532 4.75852 50.0132 4.75852C24.5732 4.75852 3.95322 15.1535 3.95322 27.9735C3.95322 40.7935 24.5752 51.1865 50.0132 51.1865Z" fill="#777BB3"/>
</g>
<mask id="mask2_305_598" style="mask-type:alpha" maskUnits="userSpaceOnUse" x="0" y="0" width="100" height="56">
<path d="M0.0832214 0.0413208H99.9432V55.9033H0.0832214V0.0413208Z" fill="white"/>
</mask>
<g mask="url(#mask2_305_598)">
<path d="M28.1232 30.8503C30.2152 30.8503 31.7762 30.4663 32.7632 29.7103C33.7402 28.9623 34.4162 27.6653 34.7692 25.8563C35.0992 24.1663 34.9732 22.9863 34.3962 22.3483C33.8062 21.6983 32.5282 21.3683 30.6002 21.3683H27.2572L25.4042 30.8513H28.1212L28.1232 30.8503ZM17.1902 42.5303C17.1136 42.5304 17.038 42.5136 16.9687 42.4811C16.8994 42.4486 16.8381 42.4012 16.7892 42.3423C16.6892 42.2223 16.6492 42.0663 16.6792 41.9143L21.5892 16.7843C21.6128 16.6662 21.6767 16.56 21.7699 16.4838C21.8631 16.4075 21.9798 16.366 22.1002 16.3663H32.6852C36.0122 16.3663 38.4882 17.2643 40.0452 19.0363C41.6102 20.8163 42.0932 23.3063 41.4812 26.4363C41.2473 27.6697 40.8175 28.8577 40.2082 29.9553C39.6122 31.0153 38.8242 31.9983 37.8662 32.8753C36.7192 33.9433 35.4212 34.7173 34.0112 35.1723C32.6242 35.6223 30.8412 35.8493 28.7152 35.8493H24.4292L23.2052 42.1113C23.1818 42.2293 23.1182 42.3357 23.0252 42.4121C22.9322 42.4885 22.8156 42.5303 22.6952 42.5303H17.1902Z" fill="black"/>
<path d="M27.6882 21.8829H30.6022C32.9292 21.8829 33.7372 22.3909 34.0022 22.6829C34.4582 23.1849 34.5442 24.2449 34.2522 25.7459C33.9222 27.4259 33.3122 28.6189 32.4392 29.2879C31.5442 29.9729 30.0892 30.3199 28.1152 30.3199H26.0292L27.6792 21.8719L27.6882 21.8829ZM32.6862 15.8489H22.1012C21.8605 15.8486 21.6271 15.9319 21.4409 16.0846C21.2547 16.2372 21.1272 16.4497 21.0802 16.6859L16.1702 41.8159C16.1409 41.9656 16.1453 42.12 16.183 42.2679C16.2207 42.4158 16.2908 42.5534 16.3882 42.6709C16.4861 42.7888 16.6088 42.8837 16.7476 42.9487C16.8865 43.0137 17.0379 43.0472 17.1912 43.0469H22.6962C22.937 43.0471 23.1704 42.9638 23.3566 42.8112C23.5428 42.6585 23.6702 42.446 23.7172 42.2099L24.8592 36.3659H28.7162C30.8962 36.3659 32.7342 36.1289 34.1742 35.6629C35.6542 35.1849 37.0172 34.3629 38.2242 33.2529C39.2212 32.3409 40.0442 31.3159 40.6642 30.2089C41.2842 29.1019 41.7342 27.8649 41.9942 26.5359C42.6382 23.2419 42.1142 20.6059 40.4392 18.6959C38.7792 16.8059 36.1722 15.8489 32.6892 15.8489H32.6862ZM24.7762 31.3659H28.1242C30.3442 31.3659 31.9962 30.9499 33.0842 30.1189C34.1722 29.2879 34.9042 27.8989 35.2842 25.9539C35.6482 24.0859 35.4822 22.7679 34.7862 22.0009C34.0902 21.2339 32.6962 20.8489 30.6042 20.8489H26.8342L24.7792 31.3659H24.7762ZM32.6862 16.8829C35.8702 16.8829 38.1932 17.7129 39.6532 19.3759C41.1132 21.0389 41.5532 23.3579 40.9702 26.3359C40.7302 27.5629 40.3252 28.6859 39.7542 29.7009C39.1832 30.7159 38.4362 31.6479 37.5142 32.5009C36.4142 33.5239 35.1942 34.2529 33.8502 34.6869C32.5062 35.1209 30.7952 35.3389 28.7152 35.3389H24.0002L22.6932 42.0029H17.1882L22.0982 16.8729H32.6832L32.6862 16.8829Z" fill="white"/>
<path d="M54.1032 35.8496C54.0266 35.8497 53.951 35.8329 53.8817 35.8004C53.8124 35.7679 53.7511 35.7205 53.7022 35.6616C53.6022 35.5416 53.5622 35.3856 53.5922 35.2336L55.7652 24.1136C55.9722 23.0566 55.9212 22.2976 55.6222 21.9766C55.4392 21.7806 54.8892 21.4516 53.2622 21.4516H49.3262L46.5962 35.4296C46.5728 35.5479 46.509 35.6543 46.4158 35.7307C46.3226 35.8071 46.2057 35.8488 46.0852 35.8486H40.6252C40.5486 35.8487 40.473 35.8319 40.4037 35.7994C40.3344 35.7669 40.2731 35.7195 40.2242 35.6606C40.1242 35.5406 40.0842 35.3846 40.1142 35.2326L45.0242 10.1026C45.0478 9.98455 45.1117 9.87835 45.2049 9.80211C45.2981 9.72588 45.4148 9.68435 45.5352 9.68461H50.9952C51.0718 9.6845 51.1474 9.70129 51.2167 9.73379C51.286 9.76628 51.3473 9.81369 51.3962 9.87261C51.4962 9.99261 51.5362 10.1486 51.5062 10.3006L50.3212 16.3656H54.5552C57.7812 16.3656 59.9682 16.9316 61.2422 18.0956C62.5422 19.2826 62.9462 21.1806 62.4462 23.7356L60.1612 35.4296C60.1378 35.5479 60.074 35.6543 59.9808 35.7307C59.8876 35.8071 59.7707 35.8488 59.6502 35.8486H54.1032V35.8496Z" fill="black"/>
<path d="M50.9952 9.16918H45.5352C45.2944 9.16895 45.0611 9.25226 44.8749 9.4049C44.6887 9.55754 44.5612 9.77005 44.5142 10.0062L39.6042 35.1362C39.5749 35.2859 39.5793 35.4403 39.617 35.5882C39.6547 35.7361 39.7248 35.8737 39.8222 35.9912C39.9201 36.1092 40.0428 36.204 40.1816 36.269C40.3204 36.334 40.4719 36.3676 40.6252 36.3672H46.0832C46.324 36.3674 46.5574 36.2841 46.7435 36.1315C46.9297 35.9788 47.0572 35.7663 47.1042 35.5302L49.7542 21.9702H53.2612C54.8842 21.9702 55.2252 22.3152 55.2392 22.3302C55.3372 22.4352 55.4672 22.9232 55.2532 24.0162L53.0802 35.1362C53.0509 35.2859 53.0553 35.4403 53.093 35.5882C53.1307 35.7361 53.2008 35.8737 53.2982 35.9912C53.3961 36.1092 53.5188 36.204 53.6576 36.269C53.7964 36.334 53.9479 36.3676 54.1012 36.3672H59.6492C59.89 36.3674 60.1234 36.2841 60.3095 36.1315C60.4957 35.9788 60.6232 35.7663 60.6702 35.5302L62.9552 23.8362C63.4912 21.0912 63.0322 19.0322 61.5922 17.7162C60.2182 16.4612 57.9152 15.8502 54.5522 15.8502H50.9532L52.0182 10.4002C52.0475 10.2504 52.0431 10.096 52.0054 9.94816C51.9677 9.80029 51.8976 9.66265 51.8002 9.54518C51.6022 9.30718 51.3082 9.16818 50.9972 9.16818L50.9952 9.16918ZM50.9972 10.2022L49.6912 16.8822H54.5562C57.6162 16.8822 59.7292 17.4122 60.8912 18.4752C62.0532 19.5382 62.3912 21.2582 61.9372 23.6372L59.6502 35.3332H54.1032L56.2762 24.2132C56.5232 22.9482 56.4322 22.0852 56.0032 21.6252C55.5742 21.1652 54.6602 20.9252 53.2632 20.9252H48.8982L46.0832 35.3332H40.6232L45.5332 10.2032H50.9932" fill="white"/>
<path d="M71.0872 30.8502C73.1792 30.8502 74.7402 30.4662 75.7272 29.7102C76.7042 28.9622 77.3802 27.6652 77.7342 25.8562C78.0642 24.1662 77.9382 22.9862 77.3602 22.3482C76.7702 21.6982 75.4922 21.3682 73.5642 21.3682H70.2232L68.3702 30.8512H71.0872V30.8502ZM60.1532 42.5312C60.0767 42.5313 60.001 42.5145 59.9317 42.4821C59.8624 42.4496 59.8011 42.4021 59.7522 42.3432C59.6522 42.2232 59.6122 42.0672 59.6422 41.9152L64.5522 16.7852C64.5758 16.6672 64.6397 16.561 64.7329 16.4847C64.8261 16.4085 64.9428 16.367 65.0632 16.3672H75.6482C78.9752 16.3672 81.4512 17.2652 83.0082 19.0372C84.5732 20.8172 85.0562 23.3072 84.4442 26.4372C84.1942 27.7122 83.7672 28.8972 83.1712 29.9572C82.5752 31.0172 81.7872 32.0002 80.8292 32.8772C79.6822 33.9452 78.3842 34.7192 76.9742 35.1742C75.5872 35.6242 73.8042 35.8512 71.6782 35.8512H67.3932L66.1702 42.1132C66.1468 42.2315 66.083 42.3379 65.9898 42.4143C65.8966 42.4908 65.7798 42.5324 65.6592 42.5322H60.1532V42.5312Z" fill="black"/>
<path d="M70.6532 21.8829H73.5672C75.8942 21.8829 76.7022 22.3909 76.9672 22.6829C77.4232 23.1849 77.5092 24.2449 77.2172 25.7459C76.8872 27.4259 76.2772 28.6189 75.4042 29.2879C74.5092 29.9729 73.0542 30.3199 71.0802 30.3199H68.9942L70.6442 21.8719L70.6532 21.8829ZM75.6512 15.8489H65.0652C64.8244 15.8486 64.5911 15.9319 64.4049 16.0846C64.2187 16.2372 64.0912 16.4497 64.0442 16.6859L59.1342 41.8159C59.1049 41.9656 59.1093 42.12 59.147 42.2679C59.1847 42.4158 59.2548 42.5534 59.3522 42.6709C59.4501 42.7888 59.5728 42.8837 59.7116 42.9487C59.8504 43.0137 60.0019 43.0472 60.1552 43.0469H65.6602C65.901 43.0471 66.1344 42.9638 66.3205 42.8112C66.5067 42.6585 66.6342 42.446 66.6812 42.2099L67.8232 36.3659H71.6802C73.8602 36.3659 75.6982 36.1289 77.1382 35.6629C78.6182 35.1849 79.9812 34.3629 81.1882 33.2529C82.1585 32.3744 82.9825 31.3469 83.6292 30.2089C84.2522 29.1009 84.6992 27.8649 84.9592 26.5359C85.6032 23.2419 85.0792 20.6039 83.4042 18.6959C81.7442 16.8059 79.1372 15.8489 75.6542 15.8489H75.6512ZM67.7412 31.3659H71.0892C73.3092 31.3659 74.9612 30.9499 76.0492 30.1189C77.1372 29.2879 77.8692 27.8989 78.2492 25.9539C78.6132 24.0859 78.4492 22.7679 77.7512 22.0009C77.0532 21.2339 75.6612 20.8489 73.5692 20.8489H69.7992L67.7442 31.3659H67.7412ZM75.6512 16.8829C78.8352 16.8829 81.1582 17.7129 82.6182 19.3759C84.0782 21.0389 84.5182 23.3579 83.9352 26.3359C83.6952 27.5629 83.2902 28.6859 82.7192 29.7009C82.1482 30.7159 81.4012 31.6479 80.4792 32.5009C79.3792 33.5239 78.1592 34.2529 76.8152 34.6869C75.4712 35.1209 73.7602 35.3389 71.6802 35.3389H66.9632L65.6582 42.0189H60.1532L65.0632 16.8889H75.6482L75.6512 16.8829Z" fill="white"/>
</g>
<defs>
<radialGradient id="paint0_radial_305_598" cx="0" cy="0" r="1" gradientUnits="userSpaceOnUse" gradientTransform="translate(17.2398 11.7108) scale(62.9376 62.9442)">
<stop stop-color="#AEB2D5"/>
<stop offset="0.3" stop-color="#AEB2D5"/>
<stop offset="0.75" stop-color="#484C89"/>
<stop offset="1" stop-color="#484C89"/>
</radialGradient>
</defs>
</svg>
