<svg width="94" height="57" viewBox="0 0 94 57" fill="none" xmlns="http://www.w3.org/2000/svg">
<path d="M46.47 56.8365C46.152 56.8365 45.855 56.7525 45.58 56.6065L42.758 54.9496C42.334 54.7196 42.546 54.6345 42.673 54.5925C43.246 54.4025 43.353 54.3626 43.946 54.0266C44.01 53.9846 44.096 54.0065 44.158 54.0466L46.322 55.3265C46.407 55.3685 46.512 55.3685 46.576 55.3265L55.042 50.4805C55.127 50.4385 55.169 50.3545 55.169 50.2505V40.5785C55.169 40.4735 55.126 40.3885 55.042 40.3485L46.576 35.5235C46.491 35.4815 46.386 35.4815 46.322 35.5235L37.856 40.3485C37.771 40.3905 37.729 40.4955 37.729 40.5785V50.2505C37.729 50.3345 37.772 50.4405 37.856 50.4805L40.169 51.8025C41.421 52.4325 42.206 51.6976 42.206 50.9626V41.4165C42.206 41.2905 42.312 41.1645 42.461 41.1645H43.543C43.67 41.1645 43.798 41.2695 43.798 41.4165V50.9626C43.798 52.6196 42.886 53.5855 41.294 53.5855C40.806 53.5855 40.424 53.5856 39.342 53.0606L37.114 51.8005C36.562 51.4855 36.224 50.8986 36.224 50.2686V40.5965C36.224 39.9665 36.564 39.3795 37.114 39.0645L45.58 34.2185C46.11 33.9245 46.832 33.9245 47.363 34.2185L55.829 39.0645C56.381 39.3795 56.719 39.9665 56.719 40.5965V50.2686C56.719 50.8986 56.379 51.4855 55.829 51.8005L47.363 56.6465C47.0825 56.7713 46.779 56.8357 46.472 56.8355L46.47 56.8365ZM49.07 50.1866C45.357 50.1866 44.593 48.5085 44.593 47.0815C44.593 46.9555 44.699 46.8295 44.848 46.8295H45.951C46.078 46.8295 46.184 46.9135 46.184 47.0295C46.354 48.1415 46.842 48.6865 49.091 48.6865C50.873 48.6865 51.637 48.2865 51.637 47.3435C51.637 46.7985 51.425 46.3995 48.645 46.1265C46.332 45.8965 44.889 45.3926 44.889 43.5666C44.889 41.8666 46.332 40.8595 48.751 40.8595C51.467 40.8595 52.804 41.7825 52.974 43.7965C52.974 43.8595 52.954 43.9225 52.91 43.9865C52.867 44.0285 52.804 44.0705 52.74 44.0705H51.637C51.531 44.0705 51.425 43.9865 51.404 43.8805C51.149 42.7265 50.492 42.3485 48.752 42.3485C46.8 42.3485 46.566 43.0185 46.566 43.5235C46.566 44.1315 46.842 44.3205 49.473 44.6565C52.073 44.9925 53.313 45.4745 53.313 47.2795C53.293 49.1255 51.763 50.1745 49.069 50.1745L49.07 50.1866Z" fill="#539E43"/>
<path d="M20.2 19.0081C20.2 18.6301 19.988 18.2741 19.648 18.0851L10.651 12.9651C10.501 12.8811 10.333 12.8391 10.163 12.8181H10.078C9.908 12.8181 9.738 12.8811 9.59 12.9651L0.593 18.0851C0.253 18.2751 0.0410004 18.6301 0.0410004 19.0081L0.0610004 32.7711C0.0604902 32.866 0.0859369 32.9592 0.134586 33.0406C0.183235 33.122 0.253232 33.1886 0.337 33.2331C0.507 33.3381 0.719 33.3381 0.867 33.2331L6.214 30.2131C6.554 30.0231 6.766 29.6681 6.766 29.2901V22.8501C6.766 22.4721 6.978 22.1161 7.318 21.9271L9.588 20.6271C9.758 20.5221 9.948 20.4801 10.14 20.4801C10.3279 20.4737 10.5132 20.525 10.671 20.6271L12.941 21.9271C13.281 22.1171 13.493 22.4721 13.493 22.8501V29.2901C13.493 29.6681 13.705 30.0241 14.045 30.2131L19.392 33.2331C19.562 33.3381 19.774 33.3381 19.944 33.2331C20.0278 33.1886 20.0978 33.122 20.1464 33.0406C20.1951 32.9592 20.2205 32.866 20.22 32.7711L20.2 19.0081ZM63.445 0.0631132C63.3626 0.0216159 63.2717 0 63.1795 0C63.0873 0 62.9964 0.0216159 62.914 0.0631132C62.744 0.168113 62.638 0.336113 62.638 0.523113V14.1601C62.638 14.2861 62.574 14.4121 62.448 14.4961C62.3891 14.5271 62.3236 14.5433 62.257 14.5433C62.1904 14.5433 62.1249 14.5271 62.066 14.4961L59.816 13.2161C59.481 13.0261 59.069 13.0261 58.734 13.2161L49.737 18.3561C49.397 18.5461 49.185 18.9011 49.185 19.2791V29.5391C49.185 29.9171 49.397 30.2731 49.737 30.4621L58.734 35.6021C59.069 35.7921 59.481 35.7921 59.816 35.6021L68.813 30.4621C69.153 30.2721 69.365 29.9171 69.365 29.5391V3.96511C69.365 3.56511 69.153 3.21011 68.813 3.02111L63.445 0.0631132ZM62.618 26.1631C62.618 26.2681 62.576 26.3531 62.491 26.3931L59.414 28.1551C59.327 28.1971 59.224 28.1971 59.138 28.1551L56.061 26.3931C55.976 26.3511 55.934 26.2461 55.934 26.1631V22.6381C55.934 22.5331 55.976 22.4481 56.061 22.4081L59.138 20.6461C59.225 20.6041 59.328 20.6041 59.414 20.6461L62.491 22.4081C62.576 22.4501 62.618 22.5551 62.618 22.6381V26.1631ZM93.385 22.5531C93.725 22.3631 93.915 22.0081 93.915 21.6301V19.1331C93.9128 18.9467 93.8628 18.764 93.7699 18.6024C93.6769 18.4408 93.5441 18.3057 93.384 18.2101L84.451 13.0901C84.116 12.9001 83.704 12.9001 83.369 13.0901L74.372 18.2301C74.032 18.4201 73.82 18.7751 73.82 19.1531V29.4131C73.82 29.7911 74.032 30.1471 74.372 30.3361L83.305 35.3711C83.645 35.5611 84.048 35.5611 84.365 35.3711L89.775 32.3911C89.8588 32.3466 89.9288 32.28 89.9774 32.1986C90.0261 32.1172 90.0515 32.024 90.051 31.9291C90.0515 31.8343 90.0261 31.7411 89.9774 31.6596C89.9288 31.5782 89.8588 31.5116 89.775 31.4671L80.735 26.3271C80.565 26.2221 80.459 26.0541 80.459 25.8671V22.6671C80.4585 22.5723 80.4839 22.4791 80.5326 22.3976C80.5812 22.3162 80.6512 22.2496 80.735 22.2051L83.557 20.6101C83.727 20.5051 83.94 20.5051 84.109 20.6101L86.931 22.2051C87.101 22.3101 87.207 22.4781 87.207 22.6671V25.1851C87.2067 25.2798 87.2322 25.3728 87.2808 25.454C87.3295 25.5353 87.3994 25.6017 87.483 25.6461C87.653 25.7511 87.865 25.7511 88.035 25.6461L93.382 22.5621L93.385 22.5531Z" fill="#333333"/>
<path d="M83.773 22.0706C83.837 22.0286 83.921 22.0286 83.985 22.0706L85.705 23.0566C85.769 23.0986 85.811 23.1616 85.811 23.2466V25.2186C85.8111 25.2565 85.8015 25.2939 85.7829 25.327C85.7643 25.3601 85.7375 25.3879 85.705 25.4076L83.985 26.3936C83.921 26.4356 83.837 26.4356 83.773 26.3936L82.053 25.4076C82.0205 25.3879 81.9937 25.3601 81.9751 25.327C81.9565 25.2939 81.9469 25.2565 81.947 25.2186V23.2466C81.947 23.1626 81.989 23.0996 82.053 23.0566L83.773 22.0706Z" fill="#539E43"/>
<path d="M35.244 13.1327C34.909 12.9427 34.497 12.9427 34.162 13.1327L25.229 18.2307C24.889 18.4207 24.699 18.7757 24.699 19.1537V29.3717C24.7012 29.5582 24.7511 29.7409 24.8441 29.9025C24.9371 30.0641 25.0699 30.1991 25.23 30.2947L34.163 35.3927C34.498 35.5827 34.91 35.5827 35.245 35.3927L44.178 30.2947C44.518 30.1047 44.708 29.7497 44.708 29.3717V19.1537C44.7058 18.9673 44.6558 18.7846 44.5629 18.623C44.4699 18.4614 44.3371 18.3263 44.177 18.2307L35.244 13.1327Z" fill="url(#paint0_linear_305_578)"/>
<mask id="mask0_305_578" style="mask-type:alpha" maskUnits="userSpaceOnUse" x="24" y="12" width="21" height="24">
<path d="M35.244 13.1327C34.909 12.9427 34.497 12.9427 34.162 13.1327L25.229 18.2307C24.889 18.4207 24.699 18.7757 24.699 19.1537V29.3717C24.7012 29.5582 24.7511 29.7409 24.8441 29.9025C24.9371 30.0641 25.0699 30.1991 25.23 30.2947L34.163 35.3927C34.498 35.5827 34.91 35.5827 35.245 35.3927L44.178 30.2947C44.518 30.1047 44.708 29.7497 44.708 29.3717V19.1537C44.7058 18.9673 44.6558 18.7846 44.5629 18.623C44.4699 18.4614 44.3371 18.3263 44.177 18.2307L35.244 13.1327Z" fill="white"/>
</mask>
<g mask="url(#mask0_305_578)">
<path d="M44.199 18.2303L35.214 13.1323C35.134 13.0783 35.044 13.0533 34.948 13.0283L24.89 30.0633C24.973 30.1633 25.074 30.2493 25.187 30.3153L34.163 35.4133C34.418 35.5603 34.715 35.6033 34.99 35.5183L44.434 18.4403C44.3664 18.3596 44.2876 18.2889 44.2 18.2303H44.199Z" fill="url(#paint1_linear_305_578)"/>
</g>
<mask id="mask1_305_578" style="mask-type:alpha" maskUnits="userSpaceOnUse" x="24" y="12" width="21" height="24">
<path d="M35.244 13.1327C34.909 12.9427 34.497 12.9427 34.162 13.1327L25.229 18.2307C24.889 18.4207 24.699 18.7757 24.699 19.1537V29.3717C24.7012 29.5582 24.7511 29.7409 24.8441 29.9025C24.9371 30.0641 25.0699 30.1991 25.23 30.2947L34.163 35.3927C34.498 35.5827 34.91 35.5827 35.245 35.3927L44.178 30.2947C44.518 30.1047 44.708 29.7497 44.708 29.3717V19.1537C44.7058 18.9673 44.6558 18.7846 44.5629 18.623C44.4699 18.4614 44.3371 18.3263 44.177 18.2307L35.244 13.1327Z" fill="white"/>
</mask>
<g mask="url(#mask1_305_578)">
<path fill-rule="evenodd" clip-rule="evenodd" d="M44.22 30.2942C44.475 30.1472 44.666 29.8942 44.75 29.6242L34.904 13.0082C34.649 12.9662 34.374 12.9882 34.14 13.1342L25.229 18.2102L34.841 35.5402C34.9806 35.5175 35.1163 35.4751 35.244 35.4142L44.22 30.2942Z" fill="url(#paint2_linear_305_578)"/>
<path d="M44.22 30.2945L35.266 35.3925C35.1395 35.4564 35.0033 35.499 34.863 35.5185L35.033 35.8335L44.963 30.1485V30.0225L44.708 29.6025C44.666 29.8965 44.475 30.1475 44.22 30.2945Z" fill="url(#paint3_linear_305_578)"/>
<path d="M44.22 30.2945L35.266 35.3925C35.1395 35.4564 35.0033 35.499 34.863 35.5185L35.033 35.8335L44.963 30.1485V30.0225L44.708 29.6025C44.666 29.8965 44.475 30.1475 44.22 30.2945Z" fill="url(#paint4_linear_305_578)"/>
</g>
<defs>
<linearGradient id="paint0_linear_305_578" x1="37.5708" y1="16.9327" x2="29.8306" y2="32.5428" gradientUnits="userSpaceOnUse">
<stop stop-color="#41873F"/>
<stop offset="0.3288" stop-color="#418B3D"/>
<stop offset="0.6352" stop-color="#419637"/>
<stop offset="0.9319" stop-color="#3FA92D"/>
<stop offset="1" stop-color="#3FAE2A"/>
</linearGradient>
<linearGradient id="paint1_linear_305_578" x1="33.6737" y1="25.4597" x2="52.6748" y2="11.5774" gradientUnits="userSpaceOnUse">
<stop offset="0.1376" stop-color="#41873F"/>
<stop offset="0.4032" stop-color="#54A044"/>
<stop offset="0.7136" stop-color="#66B848"/>
<stop offset="0.9081" stop-color="#6CC04A"/>
</linearGradient>
<linearGradient id="paint2_linear_305_578" x1="24.3722" y1="24.264" x2="45.0426" y2="24.264" gradientUnits="userSpaceOnUse">
<stop offset="0.09192" stop-color="#6CC04A"/>
<stop offset="0.2864" stop-color="#66B848"/>
<stop offset="0.5968" stop-color="#54A044"/>
<stop offset="0.8624" stop-color="#41873F"/>
</linearGradient>
<linearGradient id="paint3_linear_305_578" x1="24.373" y1="32.7352" x2="45.0435" y2="32.7352" gradientUnits="userSpaceOnUse">
<stop offset="0.09192" stop-color="#6CC04A"/>
<stop offset="0.2864" stop-color="#66B848"/>
<stop offset="0.5968" stop-color="#54A044"/>
<stop offset="0.8624" stop-color="#41873F"/>
</linearGradient>
<linearGradient id="paint4_linear_305_578" x1="48.0549" y1="26.5267" x2="41.645" y2="39.4558" gradientUnits="userSpaceOnUse">
<stop stop-color="#41873F"/>
<stop offset="0.3288" stop-color="#418B3D"/>
<stop offset="0.6352" stop-color="#419637"/>
<stop offset="0.9319" stop-color="#3FA92D"/>
<stop offset="1" stop-color="#3FAE2A"/>
</linearGradient>
</defs>
</svg>
